<svg
        xmlns="http://www.w3.org/2000/svg"
        xmlns:xlink="http://www.w3.org/1999/xlink"
        width="91px" height="91px">
    <path fill-rule="evenodd" fill="rgb(60, 115, 154)"
          d="M90.003,54.666 L76.070,54.666 C75.453,56.742 74.627,58.744 73.609,60.636 L83.456,70.483 C83.643,70.670 83.749,70.924 83.749,71.189 C83.749,71.454 83.643,71.707 83.456,71.895 L71.901,83.446 C71.511,83.836 70.879,83.836 70.489,83.446 L60.641,73.602 C58.752,74.618 56.749,75.445 54.670,76.068 L54.670,90.000 C54.670,90.552 54.223,90.999 53.672,90.999 L37.330,90.999 C36.779,90.999 36.332,90.552 36.332,90.000 L36.332,76.068 C34.256,75.448 32.254,74.621 30.361,73.602 L20.513,83.446 C20.123,83.836 19.491,83.836 19.101,83.446 L7.545,71.895 C7.358,71.707 7.253,71.454 7.253,71.189 C7.253,70.924 7.358,70.670 7.545,70.483 L17.393,60.636 C16.376,58.745 15.550,56.742 14.929,54.666 L0.996,54.666 C0.445,54.666 -0.002,54.220 -0.002,53.668 L-0.002,37.327 C-0.002,36.775 0.445,36.329 0.996,36.329 L14.927,36.329 C15.549,34.247 16.376,32.245 17.392,30.358 L7.544,20.510 C7.155,20.120 7.155,19.489 7.544,19.099 L19.100,7.543 C19.475,7.169 20.137,7.169 20.512,7.543 L30.360,17.391 C32.250,16.374 34.253,15.548 36.331,14.926 L36.331,0.993 C36.331,0.441 36.778,-0.005 37.329,-0.005 L53.671,-0.005 C54.222,-0.005 54.669,0.441 54.669,0.993 L54.669,14.926 C56.743,15.547 58.743,16.374 60.634,17.391 L70.487,7.543 C70.876,7.153 71.508,7.153 71.898,7.543 L83.454,19.099 C83.844,19.489 83.844,20.120 83.454,20.510 L73.606,30.359 C74.625,32.251 75.450,34.253 76.068,36.329 L90.003,36.329 C90.555,36.329 91.002,36.775 91.002,37.327 L91.002,53.668 C91.002,54.220 90.555,54.666 90.003,54.666 ZM89.005,38.325 L75.314,38.325 C74.863,38.325 74.468,38.023 74.351,37.588 C73.692,35.164 72.734,32.840 71.502,30.679 C71.279,30.288 71.345,29.796 71.663,29.478 L81.336,19.805 L71.192,9.660 L61.513,19.334 C61.196,19.653 60.704,19.718 60.313,19.495 C58.154,18.266 55.831,17.304 53.407,16.642 C52.973,16.522 52.672,16.128 52.672,15.678 L52.672,1.991 L38.327,1.991 L38.327,15.678 C38.327,16.128 38.026,16.522 37.593,16.642 C35.163,17.306 32.837,18.267 30.679,19.495 C30.289,19.719 29.796,19.651 29.479,19.334 L19.806,9.660 L9.662,19.805 L19.336,29.478 C19.654,29.796 19.720,30.288 19.497,30.679 C18.268,32.832 17.308,35.157 16.642,37.590 C16.524,38.024 16.130,38.325 15.680,38.325 L1.994,38.325 L1.994,52.670 L15.681,52.670 C16.131,52.670 16.525,52.971 16.644,53.405 C17.308,55.832 18.268,58.157 19.498,60.316 C19.721,60.707 19.655,61.198 19.337,61.516 L9.663,71.189 L19.807,81.329 L29.481,71.660 C29.799,71.343 30.289,71.275 30.681,71.498 C32.843,72.730 35.169,73.690 37.593,74.352 C38.027,74.471 38.328,74.865 38.328,75.315 L38.328,89.002 L52.674,89.002 L52.674,75.315 C52.674,74.866 52.975,74.471 53.408,74.352 C55.839,73.687 58.164,72.726 60.321,71.498 C60.713,71.276 61.203,71.343 61.521,71.660 L71.195,81.329 L81.338,71.189 L71.665,61.516 C71.347,61.198 71.281,60.707 71.504,60.316 C72.736,58.155 73.695,55.831 74.353,53.407 C74.471,52.972 74.866,52.670 75.316,52.670 L89.005,52.670 L89.005,38.325 ZM65.631,54.002 C65.084,55.298 64.406,56.546 63.617,57.713 C62.836,58.869 61.938,59.957 60.950,60.947 C59.960,61.936 58.872,62.834 57.717,63.614 C56.545,64.405 55.296,65.083 54.005,65.629 C52.687,66.186 51.306,66.614 49.903,66.902 C48.462,67.197 46.981,67.346 45.500,67.346 C44.019,67.346 42.538,67.197 41.097,66.902 C39.694,66.615 38.314,66.186 36.995,65.629 C35.704,65.083 34.455,64.405 33.283,63.615 C32.127,62.834 31.040,61.936 30.050,60.947 C29.061,59.957 28.163,58.869 27.383,57.713 C26.595,56.547 25.917,55.299 25.368,54.002 C24.810,52.682 24.382,51.302 24.095,49.898 C23.800,48.461 23.651,46.980 23.651,45.497 C23.651,44.015 23.800,42.533 24.095,41.095 C24.382,39.690 24.810,38.310 25.368,36.992 C25.916,35.696 26.594,34.447 27.383,33.280 C28.163,32.124 29.061,31.036 30.050,30.047 C31.041,29.056 32.129,28.159 33.283,27.380 C34.449,26.592 35.698,25.915 36.994,25.365 C38.314,24.807 39.694,24.378 41.097,24.092 C41.791,23.949 42.376,23.837 42.989,23.760 L39.716,20.540 C39.323,20.153 39.318,19.521 39.705,19.128 C40.092,18.734 40.724,18.731 41.116,19.117 L48.714,26.592 C48.905,26.779 49.013,27.036 49.013,27.304 C49.013,27.571 48.905,27.827 48.714,28.016 L41.116,35.491 C40.922,35.682 40.669,35.778 40.416,35.778 C40.158,35.778 39.900,35.678 39.705,35.479 C39.318,35.087 39.323,34.455 39.716,34.068 L43.340,30.503 C42.055,30.686 40.800,31.015 39.597,31.524 C37.791,32.288 36.169,33.381 34.777,34.774 C33.384,36.165 32.291,37.788 31.527,39.594 C30.736,41.464 30.335,43.449 30.335,45.497 C30.335,47.544 30.736,49.530 31.527,51.400 C32.290,53.205 33.384,54.827 34.777,56.220 C36.169,57.613 37.791,58.706 39.597,59.470 C43.335,61.051 47.662,61.052 51.400,59.470 C53.206,58.706 54.828,57.613 56.221,56.220 C57.615,54.827 58.709,53.205 59.472,51.400 C60.263,49.531 60.664,47.545 60.664,45.497 C60.664,43.449 60.263,41.463 59.472,39.594 C58.708,37.788 57.614,36.167 56.221,34.774 C55.831,34.384 55.831,33.752 56.221,33.362 C56.610,32.972 57.243,32.972 57.633,33.362 C59.208,34.937 60.446,36.772 61.311,38.816 C62.206,40.932 62.660,43.180 62.660,45.497 C62.660,47.813 62.206,50.061 61.311,52.178 C60.447,54.221 59.209,56.055 57.633,57.632 C56.056,59.207 54.221,60.444 52.178,61.308 C50.062,62.203 47.815,62.658 45.500,62.658 C43.184,62.658 40.936,62.203 38.819,61.308 C36.775,60.444 34.940,59.207 33.365,57.632 C31.789,56.056 30.552,54.221 29.688,52.178 C28.793,50.060 28.339,47.813 28.339,45.497 C28.339,43.181 28.793,40.933 29.688,38.816 C30.553,36.772 31.790,34.937 33.365,33.362 C34.940,31.787 36.775,30.550 38.819,29.685 C40.936,28.790 43.184,28.336 45.500,28.336 C45.512,28.336 45.522,28.343 45.535,28.343 L46.591,27.304 L44.904,25.644 C43.600,25.646 42.860,25.768 41.498,26.047 C40.223,26.308 38.970,26.697 37.773,27.203 C36.595,27.702 35.460,28.319 34.401,29.034 C33.351,29.743 32.362,30.558 31.462,31.458 C30.563,32.358 29.747,33.347 29.037,34.397 C28.320,35.458 27.704,36.592 27.206,37.770 C26.700,38.967 26.311,40.220 26.050,41.495 C25.783,42.802 25.647,44.148 25.647,45.497 C25.647,46.845 25.783,48.192 26.050,49.499 C26.311,50.773 26.700,52.026 27.206,53.224 C27.705,54.402 28.320,55.536 29.037,56.596 C29.747,57.647 30.563,58.635 31.462,59.535 C32.361,60.435 33.350,61.251 34.401,61.961 C35.465,62.678 36.599,63.294 37.773,63.790 C38.970,64.296 40.223,64.685 41.498,64.946 C44.115,65.482 46.885,65.482 49.502,64.946 C50.777,64.685 52.030,64.296 53.227,63.790 C54.400,63.294 55.535,62.678 56.599,61.959 C57.649,61.251 58.638,60.435 59.538,59.535 C60.437,58.635 61.253,57.647 61.963,56.596 C62.679,55.536 63.295,54.401 63.793,53.224 C64.299,52.027 64.688,50.774 64.950,49.499 C65.217,48.192 65.353,46.845 65.353,45.497 C65.353,44.148 65.217,42.802 64.950,41.495 C64.688,40.220 64.299,38.966 63.793,37.770 C63.295,36.593 62.680,35.459 61.963,34.397 C61.253,33.347 60.437,32.358 59.537,31.458 C58.637,30.558 57.648,29.743 56.599,29.035 C56.143,28.726 56.022,28.106 56.330,27.649 C56.639,27.193 57.259,27.073 57.717,27.380 C58.871,28.159 59.959,29.056 60.949,30.047 C61.938,31.036 62.836,32.124 63.617,33.280 C64.406,34.448 65.084,35.697 65.631,36.992 C66.189,38.309 66.618,39.689 66.905,41.095 C67.200,42.533 67.349,44.015 67.349,45.497 C67.349,46.980 67.200,48.461 66.905,49.898 C66.618,51.303 66.190,52.684 65.631,54.002 Z"/>
</svg>