<svg version="1.0" xmlns="http://www.w3.org/2000/svg" viewBox="0 0 384.000000 384.000000"
 preserveAspectRatio="xMidYMid meet">
<g transform="translate(0.000000,384.000000) scale(0.100000,-0.100000)"
fill="#47494e" stroke="none">
<path d="M1880 3820 c-225 -18 -450 -91 -609 -199 -64 -43 -159 -138 -196
-196 -69 -110 -90 -210 -80 -392 6 -104 10 -127 29 -150 24 -30 44 -114 53
-215 5 -62 3 -71 -26 -121 -17 -30 -56 -82 -86 -116 -43 -48 -55 -69 -55 -94
0 -42 8 -52 66 -91 46 -30 49 -34 47 -71 -2 -28 -11 -48 -32 -68 -27 -27 -31
-29 -64 -18 -25 9 -42 9 -55 2 -20 -11 -35 -38 -28 -50 2 -3 16 -65 29 -136
25 -126 45 -365 32 -365 -4 0 -20 11 -37 25 -66 56 -148 12 -160 -85 -3 -22
-9 -25 -44 -28 -59 -4 -92 -41 -96 -107 -3 -55 1 -53 -79 -39 -32 5 -39 2 -63
-27 -24 -28 -27 -38 -22 -78 3 -25 10 -89 15 -141 6 -52 14 -118 20 -146 20
-110 144 -422 183 -463 62 -66 410 -259 474 -264 26 -2 29 1 27 28 -18 332
-22 300 52 500 47 129 63 189 71 267 6 63 6 65 -51 178 -69 138 -101 241 -115
375 -6 55 -20 143 -30 195 -11 52 -20 101 -20 108 0 20 25 14 50 -13 20 -21
26 -41 31 -106 8 -88 23 -120 72 -149 43 -27 145 -26 263 0 234 53 232 53 264
-47 12 -37 33 -84 45 -104 38 -59 172 -331 185 -376 22 -72 9 -102 -178 -418
-40 -66 -97 -169 -128 -229 -31 -60 -67 -128 -82 -150 -53 -83 -92 -158 -87
-166 14 -22 161 -35 405 -35 239 1 263 3 384 28 327 70 605 194 854 381 151
114 142 92 97 254 -40 145 -66 205 -120 282 -19 26 -48 76 -66 111 -17 35 -44
82 -59 104 -15 22 -44 72 -65 110 -21 39 -50 93 -65 120 -15 28 -39 70 -52 95
-54 99 -78 175 -78 251 0 76 15 144 37 170 7 8 13 21 13 27 0 7 24 28 53 46
103 67 254 248 307 369 32 72 46 228 33 369 -13 138 -8 155 46 178 26 10 37
10 71 -4 22 -9 62 -16 88 -16 83 0 208 74 233 138 14 36 -8 139 -44 207 -27
51 -40 64 -86 88 -104 52 -194 29 -312 -78 -90 -83 -88 -84 -192 100 -54 96
-73 119 -147 183 -221 189 -571 289 -920 262z"/>
</g>
</svg>