<svg version="1.0" xmlns="http://www.w3.org/2000/svg"
 width="512.000000pt" height="512.000000pt" viewBox="0 0 512.000000 512.000000"
 preserveAspectRatio="xMidYMid meet">
<g transform="translate(0.000000,512.000000) scale(0.100000,-0.100000)"
fill="#c81b5c" stroke="none">
<path d="M2720 5081 c-42 -9 -97 -35 -205 -95 -127 -72 -196 -90 -350 -90
-115 0 -141 3 -225 29 -138 42 -222 41 -314 -5 -79 -39 -169 -117 -196 -169
-10 -20 -29 -78 -43 -129 -31 -113 -63 -183 -124 -275 -93 -140 -191 -226
-346 -307 -102 -53 -152 -130 -182 -281 -26 -131 -13 -176 107 -382 25 -42 53
-106 62 -142 22 -89 21 -231 -4 -325 -48 -179 -53 -220 -41 -289 17 -91 82
-213 151 -283 47 -46 68 -60 124 -77 38 -12 77 -21 88 -21 36 0 132 -32 193
-64 34 -17 93 -63 136 -106 66 -65 84 -91 134 -193 42 -85 68 -127 97 -152 80
-68 296 -139 428 -139 85 -1 107 8 204 83 114 88 169 112 306 132 95 14 170 3
305 -42 72 -25 102 -30 152 -27 126 8 322 137 379 250 13 26 34 87 45 136 56
240 141 355 339 462 57 30 122 74 146 96 81 79 127 206 128 354 1 105 -6 125
-86 243 -82 121 -110 221 -109 387 0 52 8 133 17 180 26 132 29 268 9 332 -35
107 -101 190 -185 233 -25 12 -92 37 -150 54 -242 71 -358 158 -475 356 -98
166 -137 203 -263 246 -62 21 -198 32 -252 20z m60 -480 c248 -64 443 -176
617 -353 234 -240 366 -561 367 -898 2 -625 -432 -1148 -1059 -1278 -111 -23
-361 -22 -470 1 -458 99 -800 382 -968 802 -67 167 -81 245 -81 465 -1 171 2
206 22 288 64 260 168 447 347 628 171 173 371 287 600 344 135 34 186 39 355
35 132 -3 172 -8 270 -34z"/>
<path d="M2335 4453 c-484 -60 -877 -435 -961 -918 -23 -130 -14 -348 19 -470
58 -213 153 -372 316 -527 539 -514 1416 -360 1756 308 83 162 117 306 118
494 0 310 -111 581 -327 795 -171 169 -403 285 -631 315 -68 9 -229 11 -290 3z
m841 -620 c54 -56 94 -106 94 -118 0 -27 -931 -958 -953 -953 -25 5 -517 497
-517 516 0 21 189 212 210 212 8 0 74 -59 145 -131 72 -72 138 -135 149 -141
16 -9 65 37 380 351 210 210 369 361 380 361 10 0 60 -44 112 -97z"/>
<path d="M3810 1754 c-259 -177 -556 -298 -859 -349 -123 -21 -131 -24 -131
-40 0 -7 50 -130 112 -272 62 -142 189 -435 283 -652 94 -217 176 -396 183
-399 14 -4 23 17 52 118 12 41 25 86 30 100 5 14 48 158 96 320 47 162 91 301
97 308 5 6 17 12 26 12 10 0 193 -83 407 -185 245 -116 392 -181 398 -175 6 6
-89 241 -259 635 -257 599 -287 665 -303 665 -4 0 -63 -39 -132 -86z"/>
<path d="M1189 1764 c-14 -17 -549 -1202 -549 -1216 0 -21 60 4 414 172 209
99 387 180 396 180 10 0 22 -6 28 -12 5 -7 60 -184 122 -393 127 -433 133
-450 150 -450 7 0 52 90 100 200 48 110 142 326 210 480 286 655 266 606 248
619 -10 7 -57 18 -105 25 -342 49 -689 188 -942 378 -50 38 -54 39 -72 17z"/>
</g>
</svg>