<svg version="1.0" xmlns="http://www.w3.org/2000/svg"
 width="512.000000pt" height="512.000000pt" viewBox="0 0 512.000000 512.000000"
 preserveAspectRatio="xMidYMid meet">
<g transform="translate(0.000000,512.000000) scale(0.100000,-0.100000)"
fill="#c81b5c" stroke="none">
<path d="M1037 4590 c-281 -32 -561 -179 -748 -395 -259 -297 -347 -681 -244
-1063 102 -380 427 -706 804 -806 462 -123 933 31 1216 399 169 220 247 449
246 725 -1 282 -86 514 -268 734 -130 157 -331 293 -522 355 -141 46 -341 67
-484 51z m193 -298 c48 -36 50 -46 50 -382 l0 -315 201 -200 c110 -110 207
-212 215 -227 19 -37 18 -77 -6 -116 -31 -51 -102 -68 -158 -38 -40 21 -469
457 -481 487 -5 16 -10 178 -11 383 -1 322 1 358 17 382 35 54 118 66 173 26z"/>
<path d="M2480 3788 c0 -7 7 -47 16 -88 24 -109 24 -384 0 -510 -86 -441 -374
-814 -776 -1004 -197 -93 -392 -131 -620 -122 -223 9 -383 48 -557 137 l-93
47 0 -254 0 -254 2335 0 2335 0 0 153 c0 188 -11 262 -54 352 -21 46 -152 230
-380 535 -192 256 -362 480 -379 498 -18 18 -57 45 -87 60 -55 27 -55 27 -321
30 l-266 3 -6 100 c-4 65 -13 114 -26 143 -27 63 -93 130 -154 157 -52 24 -53
24 -509 27 -370 2 -458 0 -458 -10z m1639 -634 c34 -13 82 -72 373 -452 184
-240 344 -452 357 -469 l22 -33 -515 0 -516 0 0 485 0 485 120 0 c85 0 131 -4
159 -16z"/>
<path d="M460 1387 c0 -259 8 -296 80 -367 55 -56 119 -80 212 -80 55 0 58 1
64 28 23 107 68 194 139 270 170 184 418 231 642 123 159 -77 259 -209 298
-393 l5 -28 910 0 910 0 6 28 c66 301 339 492 633 442 212 -36 399 -212 441
-416 l12 -57 54 6 c64 7 147 49 179 92 59 79 60 83 63 333 l4 232 -2326 0
-2326 0 0 -213z"/>
<path d="M1267 1196 c-99 -28 -198 -120 -233 -218 -23 -63 -20 -171 5 -239 87
-229 403 -288 568 -106 60 67 87 139 88 232 0 68 -4 89 -29 139 -75 154 -245
236 -399 192z"/>
<path d="M4187 1200 c-98 -25 -185 -99 -233 -197 -39 -79 -40 -193 -2 -274 68
-148 217 -227 373 -198 149 27 248 128 276 279 27 150 -59 306 -205 371 -53
23 -155 32 -209 19z"/>
</g>
</svg>